<svg xmlns="http://www.w3.org/2000/svg" viewBox="0 0 60 7">
  <path d="M 9.859 2.457 C 25.431 1.215 39.227 0.401 49.223 0.133 C 55.752 -0.042 59.263 -0.044 59.639 0.125 C 60.027 0.3 60.084 0.882 59.737 1.125 C 59.598 1.222 57.557 1.411 54.838 1.579 C 46.279 2.109 35.201 3.099 26.159 4.143 C 19.66 4.893 19.588 4.914 23.818 4.809 C 25.917 4.756 32.611 4.713 38.695 4.713 C 48.338 4.713 49.777 4.741 49.921 4.932 C 50.011 5.053 50.086 5.198 50.088 5.255 C 50.097 5.63 48.855 5.684 37.467 5.811 C 24.951 5.951 21.606 6.059 14.801 6.543 C 7.969 7.029 8.045 7.026 7.637 6.842 C 7.17 6.632 7.141 6.087 7.578 5.754 C 8.216 5.269 16.234 4.026 25.553 2.968 C 32.599 2.168 32.645 2.161 30.495 2.246 C 27.812 2.351 19.107 2.96 10.761 3.627 C 6.317 3.982 2.763 4.197 1.744 4.172 C 0.161 4.133 0.058 4.111 0.007 3.81 C -0.082 3.285 0.537 3.2 9.859 2.457 Z" fill="rgb(244, 243, 242)" />
</svg>
