<svg xmlns="http://www.w3.org/2000/svg" width="1714" height="1000" fill="none"><path stroke="url(#a)" stroke-opacity=".6" stroke-width="1.197" d="M-47.13-38v33.898m0 0v33.899m0-33.899H-81m33.87 0h33.871m-33.87 33.899v33.898m0-33.898H-81m33.87 0h33.871m-33.87 33.898v33.899m0-33.898H-81m33.87 0h33.871m-33.87 33.898v33.898m0-33.898H-81m33.87 0h33.871m-33.87 33.898v33.899m0-33.899H-81m33.87 0h33.871m-33.87 33.899v36.723m0-36.723H-81m33.87 0h33.871m-33.87 36.723v33.899m0-33.899H-81m33.87 0h33.871m-33.87 33.899v33.898m0-33.898H-81m33.87 0h33.871m-33.87 33.898v33.899m0-33.899H-81m33.87 0h33.871m-33.87 33.899H-81m33.87 0h33.871m-33.87 0v67.797M20.612-38v33.898m0 0v33.899m0-33.899h-33.87m33.87 0h33.87m-33.87 33.899v33.898m0-33.898h-33.87m33.87 0h33.87m-33.87 33.898v33.899m0-33.898h-33.87m33.87 0h33.87m-33.87 33.898v33.898m0-33.898h-33.87m33.87 0h33.87m-33.87 33.898v33.899m0-33.899h-33.87m33.87 0h33.87m-33.87 33.899v36.723m0-36.723h-33.87m33.87 0h33.87m-33.87 36.723v33.899m0-33.899h-33.87m33.87 0h33.87m-33.87 33.899v33.898m0-33.898h-33.87m33.87 0h33.87m-33.87 33.898v33.899m0-33.899h-33.87m33.87 0h33.87m-33.87 33.899h-33.87m33.87 0h33.87m-33.87 0v67.797M-13.258-38v33.898m0 0v33.899m0 0v33.898m0 0v33.899m0 0v33.898m0 0v33.899m0 0v36.723m0 0v33.899m0 0v33.898m0 0v33.899m0 0v67.797M54.481-38v33.898m0 0v33.899m0-33.899h33.871m-33.87 33.899v33.898m0-33.898h33.87m-33.87 33.898v33.899m0-33.898h33.87m-33.87 33.898v33.898m0-33.898h33.87m-33.87 33.898v33.899m0-33.899h33.87m-33.87 33.899v36.723m0-36.723h33.87m-33.87 36.723v33.899m0-33.899h33.87m-33.87 33.899v33.898m0-33.898h33.87m-33.87 33.898v33.899m0-33.899h33.87m-33.87 33.899h33.87m-33.87 0v67.797M88.353-38v33.898m0 0v33.899m0-33.899h33.871m-33.87 33.899v33.898m0-33.898h33.87m-33.87 33.898v33.899m0-33.898h33.87m-33.87 33.898v33.898m0-33.898h33.87m-33.87 33.898v33.899m0-33.899h33.87m-33.87 33.899v36.723m0-36.723h33.87m-33.87 36.723v33.899m0-33.899h33.87m-33.87 33.899v33.898m0-33.898h33.87m-33.87 33.898v33.899m0-33.899h33.87m-33.87 33.899h33.87m-33.87 0v67.797M122.223-38v33.898m0 0v33.899m0-33.899h33.871m-33.871 33.899v33.898m0-33.898h33.871m-33.871 33.898v33.899m0-33.898h33.871m-33.871 33.898v33.898m0-33.898h33.871m-33.871 33.898v33.899m0-33.899h33.871m-33.871 33.899v36.723m0-36.723h33.871m-33.871 36.723v33.899m0-33.899h33.871m-33.871 33.899v33.898m0-33.898h33.871m-33.871 33.898v33.899m0-33.899h33.871m-33.871 33.899h33.871m-33.871 0v67.797M260.529-38v33.898m0 0v33.899m0-33.899h-36.693m36.693 0H294.4m-33.871 33.899v33.898m0-33.898h-36.693m36.693 0H294.4m-33.871 33.898v33.899m0-33.898h-36.693m36.693 0H294.4m-33.871 33.898v33.898m0-33.898h-36.693m36.693 0H294.4m-33.871 33.898v33.899m0-33.899h-36.693m36.693 0H294.4m-33.871 33.899v36.723m0-36.723h-36.693m36.693 0H294.4m-33.871 36.723v33.899m0-33.899h-36.693m36.693 0H294.4m-33.871 33.899v33.898m0-33.898h-36.693m36.693 0H294.4m-33.871 33.898v33.899m0-33.899h-36.693m36.693 0H294.4m-33.871 33.899h-36.693m36.693 0H294.4m-33.871 0v67.797M223.836-38v33.898m0 0v33.899m0-33.899h-33.871m33.871 33.899v33.898m0-33.898h-33.871m33.871 33.898v33.899m0-33.898h-33.871m33.871 33.898v33.898m0-33.898h-33.871m33.871 33.898v33.899m0-33.899h-33.871m33.871 33.899v36.723m0-36.723h-33.871m33.871 36.723v33.899m0-33.899h-33.871m33.871 33.899v33.898m0-33.898h-33.871m33.871 33.898v33.899m0-33.899h-33.871m33.871 33.899h-33.871m33.871 0v67.797M189.965-38v33.898m0 0v33.899m0-33.899h-33.87m33.87 33.899v33.898m0-33.898h-33.87m33.87 33.898v33.899m0-33.898h-33.87m33.87 33.898v33.898m0-33.898h-33.87m33.87 33.898v33.899m0-33.899h-33.87m33.87 33.899v36.723m0-36.723h-33.87m33.87 36.723v33.899m0-33.899h-33.87m33.87 33.899v33.898m0-33.898h-33.87m33.87 33.898v33.899m0-33.899h-33.87m33.87 33.899h-33.87m33.87 0v67.797M156.095-38v33.898m0 0v33.899m0 0v33.898m0 0v33.899m0 0v33.898m0 0v33.899m0 0v36.723m0 0v33.899m0 0v33.898m0 0v33.899m0 0v67.797M294.4 202.114h33.871m-33.871 0v-36.723m0 36.723v33.899m0-70.622h33.871m-33.871 0v-33.899m0 0h33.871m-33.871 0V97.594m0 0h33.871m-33.871 0V63.696m0 0h33.871m-33.871 0V29.797m0 0h33.871m-33.871 0V-4.102m0 0h33.871m-33.871 0V-38m0 274.013h33.871m-33.871 0v33.898m0 0h33.871m-33.871 0v33.899m0 0h33.871m-33.871 0v67.797M328.271-38v33.898m0 0v33.899m0-33.899h33.87m-33.87 33.899v33.898m0-33.898h33.87m-33.87 33.898v33.899m0-33.898h33.87m-33.87 33.898v33.898m0-33.898h33.87m-33.87 33.898v33.899m0-33.899h33.87m-33.87 33.899v36.723m0-36.723h33.87m-33.87 36.723v33.899m0-33.899h33.87m-33.87 33.899v33.898m0-33.898h33.87m-33.87 33.898v33.899m0-33.899h33.87m-33.87 33.899h33.87m-33.87 0v67.797M396.012-38v33.898m0 0v33.899m0-33.899h-33.871m33.871 0h33.871m-33.871 33.899v33.898m0-33.898h-33.871m33.871 0h33.871m-33.871 33.898v33.899m0-33.898h-33.871m33.871 0h33.871m-33.871 33.898v33.898m0-33.898h-33.871m33.871 0h33.871m-33.871 33.898v33.899m0-33.899h-33.871m33.871 0h33.871m-33.871 33.899v36.723m0-36.723h-33.871m33.871 0h33.871m-33.871 36.723v33.899m0-33.899h-33.871m33.871 0h33.871m-33.871 33.899v33.898m0-33.898h-33.871m33.871 0h33.871m-33.871 33.898v33.899m0-33.899h-33.871m33.871 0h33.871m-33.871 33.899h-33.871m33.871 0h33.871m-33.871 0v67.797M362.141-38v33.898m0 0v33.899m0 0v33.898m0 0v33.899m0 0v33.898m0 0v33.899m0 0v36.723m0 0v33.899m0 0v33.898m0 0v33.899m0 0v67.797M429.883-38v33.898m0 0v33.899m0-33.899h33.87m-33.87 33.899v33.898m0-33.898h33.87m-33.87 33.898v33.899m0-33.898h33.87m-33.87 33.898v33.898m0-33.898h33.87m-33.87 33.898v33.899m0-33.899h33.87m-33.87 33.899v36.723m0-36.723h33.87m-33.87 36.723v33.899m0-33.899h33.87m-33.87 33.899v33.898m0-33.898h33.87m-33.87 33.898v33.899m0-33.899h33.87m-33.87 33.899h33.87m-33.87 0v67.797M463.753-38v33.898m0 0v33.899m0-33.899h33.871m-33.871 33.899v33.898m0-33.898h33.871m-33.871 33.898v33.899m0-33.898h33.871m-33.871 33.898v33.898m0-33.898h33.871m-33.871 33.898v33.899m0-33.899h33.871m-33.871 33.899v36.723m0-36.723h33.871m-33.871 36.723v33.899m0-33.899h33.871m-33.871 33.899v33.898m0-33.898h33.871m-33.871 33.898v33.899m0-33.899h33.871m-33.871 33.899h33.871m-33.871 0v67.797M497.624-38v33.898m0 0v33.899m0-33.899h33.871m-33.871 33.899v33.898m0-33.898h33.871m-33.871 33.898v33.899m0-33.898h33.871m-33.871 33.898v33.898m0-33.898h33.871m-33.871 33.898v33.899m0-33.899h33.871m-33.871 33.899v36.723m0-36.723h33.871m-33.871 36.723v33.899m0-33.899h33.871m-33.871 33.899v33.898m0-33.898h33.871m-33.871 33.898v33.899m0-33.899h33.871m-33.871 33.899h33.871m-33.871 0v67.797M635.929-38v33.898m0 0v33.899m0-33.899h-36.693m36.693 0H669.8m-33.871 33.899v33.898m0-33.898h-36.693m36.693 0H669.8m-33.871 33.898v33.899m0-33.898h-36.693m36.693 0H669.8m-33.871 33.898v33.898m0-33.898h-36.693m36.693 0H669.8m-33.871 33.898v33.899m0-33.899h-36.693m36.693 0H669.8m-33.871 33.899v36.723m0-36.723h-36.693m36.693 0H669.8m-33.871 36.723v33.899m0-33.899h-36.693m36.693 0H669.8m-33.871 33.899v33.898m0-33.898h-36.693m36.693 0H669.8m-33.871 33.898v33.899m0-33.899h-36.693m36.693 0H669.8m-33.871 33.899h-36.693m36.693 0H669.8m-33.871 0v67.797M599.236-38v33.898m0 0v33.899m0-33.899h-33.871m33.871 33.899v33.898m0-33.898h-33.871m33.871 33.898v33.899m0-33.898h-33.871m33.871 33.898v33.898m0-33.898h-33.871m33.871 33.898v33.899m0-33.899h-33.871m33.871 33.899v36.723m0-36.723h-33.871m33.871 36.723v33.899m0-33.899h-33.871m33.871 33.899v33.898m0-33.898h-33.871m33.871 33.898v33.899m0-33.899h-33.871m33.871 33.899h-33.871m33.871 0v67.797M565.365-38v33.898m0 0v33.899m0-33.899h-33.87m33.87 33.899v33.898m0-33.898h-33.87m33.87 33.898v33.899m0-33.898h-33.87m33.87 33.898v33.898m0-33.898h-33.87m33.87 33.898v33.899m0-33.899h-33.87m33.87 33.899v36.723m0-36.723h-33.87m33.87 36.723v33.899m0-33.899h-33.87m33.87 33.899v33.898m0-33.898h-33.87m33.87 33.898v33.899m0-33.899h-33.87m33.87 33.899h-33.87m33.87 0v67.797M531.495-38v33.898m0 0v33.899m0 0v33.898m0 0v33.899m0 0v33.898m0 0v33.899m0 0v36.723m0 0v33.899m0 0v33.898m0 0v33.899m0 0v67.797M669.8 202.114h33.871m-33.871 0v-36.723m0 36.723v33.899m0-70.622h33.871m-33.871 0v-33.899m0 0h33.871m-33.871 0V97.594m0 0h33.871m-33.871 0V63.696m0 0h33.871m-33.871 0V29.797m0 0h33.871m-33.871 0V-4.102m0 0h33.871m-33.871 0V-38m0 274.013h33.871m-33.871 0v33.898m0 0h33.871m-33.871 0v33.899m0 0h33.871m-33.871 0v67.797M703.671-38v33.898m0 0v33.899m0-33.899h33.87m-33.87 33.899v33.898m0-33.898h33.87m-33.87 33.898v33.899m0-33.898h33.87m-33.87 33.898v33.898m0-33.898h33.87m-33.87 33.898v33.899m0-33.899h33.87m-33.87 33.899v36.723m0-36.723h33.87m-33.87 36.723v33.899m0-33.899h33.87m-33.87 33.899v33.898m0-33.898h33.87m-33.87 33.898v33.899m0-33.899h33.87m-33.87 33.899h33.87m-33.87 0v67.797M771.412-38v33.898m0 0v33.899m0-33.899h-33.871m33.871 0h33.871m-33.871 33.899v33.898m0-33.898h-33.871m33.871 0h33.871m-33.871 33.898v33.899m0-33.898h-33.871m33.871 0h33.871m-33.871 33.898v33.898m0-33.898h-33.871m33.871 0h33.871m-33.871 33.898v33.899m0-33.899h-33.871m33.871 0h33.871m-33.871 33.899v36.723m0-36.723h-33.871m33.871 0h33.871m-33.871 36.723v33.899m0-33.899h-33.871m33.871 0h33.871m-33.871 33.899v33.898m0-33.898h-33.871m33.871 0h33.871m-33.871 33.898v33.899m0-33.899h-33.871m33.871 0h33.871m-33.871 33.899h-33.871m33.871 0h33.871m-33.871 0v67.797M737.541-38v33.898m0 0v33.899m0 0v33.898m0 0v33.899m0 0v33.898m0 0v33.899m0 0v36.723m0 0v33.899m0 0v33.898m0 0v33.899m0 0v67.797M805.283-38v33.898m0 0v33.899m0-33.899h33.87m-33.87 33.899v33.898m0-33.898h33.87m-33.87 33.898v33.899m0-33.898h33.87m-33.87 33.898v33.898m0-33.898h33.87m-33.87 33.898v33.899m0-33.899h33.87m-33.87 33.899v36.723m0-36.723h33.87m-33.87 36.723v33.899m0-33.899h33.87m-33.87 33.899v33.898m0-33.898h33.87m-33.87 33.898v33.899m0-33.899h33.87m-33.87 33.899h33.87m-33.87 0v67.797M839.153-38v33.898m0 0v33.899m0-33.899h33.871m-33.871 33.899v33.898m0-33.898h33.871m-33.871 33.898v33.899m0-33.898h33.871m-33.871 33.898v33.898m0-33.898h33.871m-33.871 33.898v33.899m0-33.899h33.871m-33.871 33.899v36.723m0-36.723h33.871m-33.871 36.723v33.899m0-33.899h33.871m-33.871 33.899v33.898m0-33.898h33.871m-33.871 33.898v33.899m0-33.899h33.871m-33.871 33.899h33.871m-33.871 0v67.797M873.024-38v33.898m0 0v33.899m0-33.899h33.871m-33.871 33.899v33.898m0-33.898h33.871m-33.871 33.898v33.899m0-33.898h33.871m-33.871 33.898v33.898m0-33.898h33.871m-33.871 33.898v33.899m0-33.899h33.871m-33.871 33.899v36.723m0-36.723h33.871m-33.871 36.723v33.899m0-33.899h33.871m-33.871 33.899v33.898m0-33.898h33.871m-33.871 33.898v33.899m0-33.899h33.871m-33.871 33.899h33.871m-33.871 0v67.797M1011.33-38v33.898m0 0v33.899m0-33.899h-36.694m36.694 0h33.87m-33.87 33.899v33.898m0-33.898h-36.694m36.694 0h33.87m-33.87 33.898v33.899m0-33.898h-36.694m36.694 0h33.87m-33.87 33.898v33.898m0-33.898h-36.694m36.694 0h33.87m-33.87 33.898v33.899m0-33.899h-36.694m36.694 0h33.87m-33.87 33.899v36.723m0-36.723h-36.694m36.694 0h33.87m-33.87 36.723v33.899m0-33.899h-36.694m36.694 0h33.87m-33.87 33.899v33.898m0-33.898h-36.694m36.694 0h33.87m-33.87 33.898v33.899m0-33.899h-36.694m36.694 0h33.87m-33.87 33.899h-36.694m36.694 0h33.87m-33.87 0v67.797M974.636-38v33.898m0 0v33.899m0-33.899h-33.871m33.871 33.899v33.898m0-33.898h-33.871m33.871 33.898v33.899m0-33.898h-33.871m33.871 33.898v33.898m0-33.898h-33.871m33.871 33.898v33.899m0-33.899h-33.871m33.871 33.899v36.723m0-36.723h-33.871m33.871 36.723v33.899m0-33.899h-33.871m33.871 33.899v33.898m0-33.898h-33.871m33.871 33.898v33.899m0-33.899h-33.871m33.871 33.899h-33.871m33.871 0v67.797M940.765-38v33.898m0 0v33.899m0-33.899h-33.87m33.87 33.899v33.898m0-33.898h-33.87m33.87 33.898v33.899m0-33.898h-33.87m33.87 33.898v33.898m0-33.898h-33.87m33.87 33.898v33.899m0-33.899h-33.87m33.87 33.899v36.723m0-36.723h-33.87m33.87 36.723v33.899m0-33.899h-33.87m33.87 33.899v33.898m0-33.898h-33.87m33.87 33.898v33.899m0-33.899h-33.87m33.87 33.899h-33.87m33.87 0v67.797M906.895-38v33.898m0 0v33.899m0 0v33.898m0 0v33.899m0 0v33.898m0 0v33.899m0 0v36.723m0 0v33.899m0 0v33.898m0 0v33.899m0 0v67.797M1045.2 202.114h33.87m-33.87 0v-36.723m0 36.723v33.899m0-70.622h33.87m-33.87 0v-33.899m0 0h33.87m-33.87 0V97.594m0 0h33.87m-33.87 0V63.696m0 0h33.87m-33.87 0V29.797m0 0h33.87m-33.87 0V-4.102m0 0h33.87m-33.87 0V-38m0 274.013h33.87m-33.87 0v33.898m0 0h33.87m-33.87 0v33.899m0 0h33.87m-33.87 0v67.797M1079.07-38v33.898m0 0v33.899m0-33.899h33.87m-33.87 33.899v33.898m0-33.898h33.87m-33.87 33.898v33.899m0-33.898h33.87m-33.87 33.898v33.898m0-33.898h33.87m-33.87 33.898v33.899m0-33.899h33.87m-33.87 33.899v36.723m0-36.723h33.87m-33.87 36.723v33.899m0-33.899h33.87m-33.87 33.899v33.898m0-33.898h33.87m-33.87 33.898v33.899m0-33.899h33.87m-33.87 33.899h33.87m-33.87 0v67.797M1146.81-38v33.898m0 0v33.899m0-33.899h-33.87m33.87 0h33.87m-33.87 33.899v33.898m0-33.898h-33.87m33.87 0h33.87m-33.87 33.898v33.899m0-33.898h-33.87m33.87 0h33.87m-33.87 33.898v33.898m0-33.898h-33.87m33.87 0h33.87m-33.87 33.898v33.899m0-33.899h-33.87m33.87 0h33.87m-33.87 33.899v36.723m0-36.723h-33.87m33.87 0h33.87m-33.87 36.723v33.899m0-33.899h-33.87m33.87 0h33.87m-33.87 33.899v33.898m0-33.898h-33.87m33.87 0h33.87m-33.87 33.898v33.899m0-33.899h-33.87m33.87 0h33.87m-33.87 33.899h-33.87m33.87 0h33.87m-33.87 0v67.797M1112.94-38v33.898m0 0v33.899m0 0v33.898m0 0v33.899m0 0v33.898m0 0v33.899m0 0v36.723m0 0v33.899m0 0v33.898m0 0v33.899m0 0v67.797M1180.68-38v33.898m0 0v33.899m0-33.899h33.87m-33.87 33.899v33.898m0-33.898h33.87m-33.87 33.898v33.899m0-33.898h33.87m-33.87 33.898v33.898m0-33.898h33.87m-33.87 33.898v33.899m0-33.899h33.87m-33.87 33.899v36.723m0-36.723h33.87m-33.87 36.723v33.899m0-33.899h33.87m-33.87 33.899v33.898m0-33.898h33.87m-33.87 33.898v33.899m0-33.899h33.87m-33.87 33.899h33.87m-33.87 0v67.797M1214.55-38v33.898m0 0v33.899m0-33.899h33.87m-33.87 33.899v33.898m0-33.898h33.87m-33.87 33.898v33.899m0-33.898h33.87m-33.87 33.898v33.898m0-33.898h33.87m-33.87 33.898v33.899m0-33.899h33.87m-33.87 33.899v36.723m0-36.723h33.87m-33.87 36.723v33.899m0-33.899h33.87m-33.87 33.899v33.898m0-33.898h33.87m-33.87 33.898v33.899m0-33.899h33.87m-33.87 33.899h33.87m-33.87 0v67.797M1248.42-38v33.898m0 0v33.899m0-33.899h33.87m-33.87 33.899v33.898m0-33.898h33.87m-33.87 33.898v33.899m0-33.898h33.87m-33.87 33.898v33.898m0-33.898h33.87m-33.87 33.898v33.899m0-33.899h33.87m-33.87 33.899v36.723m0-36.723h33.87m-33.87 36.723v33.899m0-33.899h33.87m-33.87 33.899v33.898m0-33.898h33.87m-33.87 33.898v33.899m0-33.899h33.87m-33.87 33.899h33.87m-33.87 0v67.797M1386.73-38v33.898m0 0v33.899m0-33.899h-36.69m36.69 0h33.87m-33.87 33.899v33.898m0-33.898h-36.69m36.69 0h33.87m-33.87 33.898v33.899m0-33.898h-36.69m36.69 0h33.87m-33.87 33.898v33.898m0-33.898h-36.69m36.69 0h33.87m-33.87 33.898v33.899m0-33.899h-36.69m36.69 0h33.87m-33.87 33.899v36.723m0-36.723h-36.69m36.69 0h33.87m-33.87 36.723v33.899m0-33.899h-36.69m36.69 0h33.87m-33.87 33.899v33.898m0-33.898h-36.69m36.69 0h33.87m-33.87 33.898v33.899m0-33.899h-36.69m36.69 0h33.87m-33.87 33.899h-36.69m36.69 0h33.87m-33.87 0v67.797M1350.04-38v33.898m0 0v33.899m0-33.899h-33.87m33.87 33.899v33.898m0-33.898h-33.87m33.87 33.898v33.899m0-33.898h-33.87m33.87 33.898v33.898m0-33.898h-33.87m33.87 33.898v33.899m0-33.899h-33.87m33.87 33.899v36.723m0-36.723h-33.87m33.87 36.723v33.899m0-33.899h-33.87m33.87 33.899v33.898m0-33.898h-33.87m33.87 33.898v33.899m0-33.899h-33.87m33.87 33.899h-33.87m33.87 0v67.797M1316.17-38v33.898m0 0v33.899m0-33.899h-33.88m33.88 33.899v33.898m0-33.898h-33.88m33.88 33.898v33.899m0-33.898h-33.88m33.88 33.898v33.898m0-33.898h-33.88m33.88 33.898v33.899m0-33.899h-33.88m33.88 33.899v36.723m0-36.723h-33.88m33.88 36.723v33.899m0-33.899h-33.88m33.88 33.899v33.898m0-33.898h-33.88m33.88 33.898v33.899m0-33.899h-33.88m33.88 33.899h-33.88m33.88 0v67.797M1282.29-38v33.898m0 0v33.899m0 0v33.898m0 0v33.899m0 0v33.898m0 0v33.899m0 0v36.723m0 0v33.899m0 0v33.898m0 0v33.899m0 0v67.797m138.31-169.493h33.87m-33.87 0v-36.723m0 36.723v33.899m0-70.622h33.87m-33.87 0v-33.899m0 0h33.87m-33.87 0V97.594m0 0h33.87m-33.87 0V63.696m0 0h33.87m-33.87 0V29.797m0 0h33.87m-33.87 0V-4.102m0 0h33.87m-33.87 0V-38m0 274.013h33.87m-33.87 0v33.898m0 0h33.87m-33.87 0v33.899m0 0h33.87m-33.87 0v67.797M1454.47-38v33.898m0 0v33.899m0-33.899h33.87m-33.87 33.899v33.898m0-33.898h33.87m-33.87 33.898v33.899m0-33.898h33.87m-33.87 33.898v33.898m0-33.898h33.87m-33.87 33.898v33.899m0-33.899h33.87m-33.87 33.899v36.723m0-36.723h33.87m-33.87 36.723v33.899m0-33.899h33.87m-33.87 33.899v33.898m0-33.898h33.87m-33.87 33.898v33.899m0-33.899h33.87m-33.87 33.899h33.87m-33.87 0v67.797M1522.21-38v33.898m0 0v33.899m0-33.899h-33.87m33.87 0h33.87m-33.87 33.899v33.898m0-33.898h-33.87m33.87 0h33.87m-33.87 33.898v33.899m0-33.898h-33.87m33.87 0h33.87m-33.87 33.898v33.898m0-33.898h-33.87m33.87 0h33.87m-33.87 33.898v33.899m0-33.899h-33.87m33.87 0h33.87m-33.87 33.899v36.723m0-36.723h-33.87m33.87 0h33.87m-33.87 36.723v33.899m0-33.899h-33.87m33.87 0h33.87m-33.87 33.899v33.898m0-33.898h-33.87m33.87 0h33.87m-33.87 33.898v33.899m0-33.899h-33.87m33.87 0h33.87m-33.87 33.899h-33.87m33.87 0h33.87m-33.87 0v67.797M1488.34-38v33.898m0 0v33.899m0 0v33.898m0 0v33.899m0 0v33.898m0 0v33.899m0 0v36.723m0 0v33.899m0 0v33.898m0 0v33.899m0 0v67.797M1556.08-38v33.898m0 0v33.899m0-33.899h33.87m-33.87 33.899v33.898m0-33.898h33.87m-33.87 33.898v33.899m0-33.898h33.87m-33.87 33.898v33.898m0-33.898h33.87m-33.87 33.898v33.899m0-33.899h33.87m-33.87 33.899v36.723m0-36.723h33.87m-33.87 36.723v33.899m0-33.899h33.87m-33.87 33.899v33.898m0-33.898h33.87m-33.87 33.898v33.899m0-33.899h33.87m-33.87 33.899h33.87m-33.87 0v67.797M1589.95-38v33.898m0 0v33.899m0-33.899h33.87m-33.87 33.899v33.898m0-33.898h33.87m-33.87 33.898v33.899m0-33.898h33.87m-33.87 33.898v33.898m0-33.898h33.87m-33.87 33.898v33.899m0-33.899h33.87m-33.87 33.899v36.723m0-36.723h33.87m-33.87 36.723v33.899m0-33.899h33.87m-33.87 33.899v33.898m0-33.898h33.87m-33.87 33.898v33.899m0-33.899h33.87m-33.87 33.899h33.87m-33.87 0v67.797M1623.82-38v33.898m0 0v33.899m0-33.899h33.87m-33.87 33.899v33.898m0-33.898h33.87m-33.87 33.898v33.899m0-33.898h33.87m-33.87 33.898v33.898m0-33.898h33.87m-33.87 33.898v33.899m0-33.899h33.87m-33.87 33.899v36.723m0-36.723h33.87m-33.87 36.723v33.899m0-33.899h33.87m-33.87 33.899v33.898m0-33.898h33.87m-33.87 33.898v33.899m0-33.899h33.87m-33.87 33.899h33.87m-33.87 0v67.797M1762.13-38v33.898m0 0v33.899m0-33.899h-36.69m36.69 0H1796m-33.87 33.899v33.898m0-33.898h-36.69m36.69 0H1796m-33.87 33.898v33.899m0-33.898h-36.69m36.69 0H1796m-33.87 33.898v33.898m0-33.898h-36.69m36.69 0H1796m-33.87 33.898v33.899m0-33.899h-36.69m36.69 0H1796m-33.87 33.899v36.723m0-36.723h-36.69m36.69 0H1796m-33.87 36.723v33.899m0-33.899h-36.69m36.69 0H1796m-33.87 33.899v33.898m0-33.898h-36.69m36.69 0H1796m-33.87 33.898v33.899m0-33.899h-36.69m36.69 0H1796m-33.87 33.899h-36.69m36.69 0H1796m-33.87 0v67.797M1725.44-38v33.898m0 0v33.899m0-33.899h-33.87m33.87 33.899v33.898m0-33.898h-33.87m33.87 33.898v33.899m0-33.898h-33.87m33.87 33.898v33.898m0-33.898h-33.87m33.87 33.898v33.899m0-33.899h-33.87m33.87 33.899v36.723m0-36.723h-33.87m33.87 36.723v33.899m0-33.899h-33.87m33.87 33.899v33.898m0-33.898h-33.87m33.87 33.898v33.899m0-33.899h-33.87m33.87 33.899h-33.87m33.87 0v67.797M1691.57-38v33.898m0 0v33.899m0-33.899h-33.88m33.88 33.899v33.898m0-33.898h-33.88m33.88 33.898v33.899m0-33.898h-33.88m33.88 33.898v33.898m0-33.898h-33.88m33.88 33.898v33.899m0-33.899h-33.88m33.88 33.899v36.723m0-36.723h-33.88m33.88 36.723v33.899m0-33.899h-33.88m33.88 33.899v33.898m0-33.898h-33.88m33.88 33.898v33.899m0-33.899h-33.88m33.88 33.899h-33.88m33.88 0v67.797M1657.69-38v33.898m0 0v33.899m0 0v33.898m0 0v33.899m0 0v33.898m0 0v33.899m0 0v36.723m0 0v33.899m0 0v33.898m0 0v33.899m0 0v67.797M-81 337.708h1877M-47.13 371.607v33.898m0-33.898H-81m33.87 0h33.871m-33.87 33.898v33.899m0-33.899H-81m33.87 0h33.871m-33.87 33.899v33.898m0-33.898H-81m33.87 0h33.871m-33.87 33.898v33.899m0-33.899H-81m33.87 0h33.871m-33.87 33.899v33.898m0-33.898H-81m33.87 0h33.871m-33.87 33.898v36.723m0-36.723H-81m33.87 0h33.871m-33.87 36.723v33.899m0-33.899H-81m33.87 0h33.871m-33.87 33.899v33.898m0-33.898H-81m33.87 0h33.871m-33.87 33.898v33.899m0-33.899H-81m33.87 0h33.871m-33.87 33.899H-81m33.87 0h33.871m-33.87 0v67.797m67.741-375.708v33.898m0-33.898h-33.87m33.87 0h33.87m-33.87 33.898v33.899m0-33.899h-33.87m33.87 0h33.87m-33.87 33.899v33.898m0-33.898h-33.87m33.87 0h33.87m-33.87 33.898v33.899m0-33.899h-33.87m33.87 0h33.87m-33.87 33.899v33.898m0-33.898h-33.87m33.87 0h33.87m-33.87 33.898v36.723m0-36.723h-33.87m33.87 0h33.87m-33.87 36.723v33.899m0-33.899h-33.87m33.87 0h33.87m-33.87 33.899v33.898m0-33.898h-33.87m33.87 0h33.87m-33.87 33.898v33.899m0-33.899h-33.87m33.87 0h33.87m-33.87 33.899h-33.87m33.87 0h33.87m-33.87 0v67.797m-33.87-375.708v33.898m0 0v33.899m0 0v33.898m0 0v33.899m0 0v33.898m0 0v36.723m0 0v33.899m0 0v33.898m0 0v33.899m0 0v67.797m67.74-375.708v33.898m0-33.898h33.871m-33.87 33.898v33.899m0-33.899h33.87m-33.87 33.899v33.898m0-33.898h33.87m-33.87 33.898v33.899m0-33.899h33.87m-33.87 33.899v33.898m0-33.898h33.87m-33.87 33.898v36.723m0-36.723h33.87m-33.87 36.723v33.899m0-33.899h33.87m-33.87 33.899v33.898m0-33.898h33.87m-33.87 33.898v33.899m0-33.899h33.87m-33.87 33.899h33.87m-33.87 0v67.797m33.87-375.708v33.898m0-33.898h33.871m-33.87 33.898v33.899m0-33.899h33.87m-33.87 33.899v33.898m0-33.898h33.87m-33.87 33.898v33.899m0-33.899h33.87m-33.87 33.899v33.898m0-33.898h33.87m-33.87 33.898v36.723m0-36.723h33.87m-33.87 36.723v33.899m0-33.899h33.87m-33.87 33.899v33.898m0-33.898h33.87m-33.87 33.898v33.899m0-33.899h33.87m-33.87 33.899h33.87m-33.87 0v67.797m33.87-375.708v33.898m0-33.898h33.871m-33.871 33.898v33.899m0-33.899h33.871m-33.871 33.899v33.898m0-33.898h33.871m-33.871 33.898v33.899m0-33.899h33.871m-33.871 33.899v33.898m0-33.898h33.871m-33.871 33.898v36.723m0-36.723h33.871m-33.871 36.723v33.899m0-33.899h33.871m-33.871 33.899v33.898m0-33.898h33.871m-33.871 33.898v33.899m0-33.899h33.871m-33.871 33.899h33.871m-33.871 0v67.797m138.305-375.708v33.898m0-33.898h-36.693m36.693 0H294.4m-33.871 33.898v33.899m0-33.899h-36.693m36.693 0H294.4m-33.871 33.899v33.898m0-33.898h-36.693m36.693 0H294.4m-33.871 33.898v33.899m0-33.899h-36.693m36.693 0H294.4m-33.871 33.899v33.898m0-33.898h-36.693m36.693 0H294.4m-33.871 33.898v36.723m0-36.723h-36.693m36.693 0H294.4m-33.871 36.723v33.899m0-33.899h-36.693m36.693 0H294.4m-33.871 33.899v33.898m0-33.898h-36.693m36.693 0H294.4m-33.871 33.898v33.899m0-33.899h-36.693m36.693 0H294.4m-33.871 33.899h-36.693m36.693 0H294.4m-33.871 0v67.797m-36.693-375.708v33.898m0-33.898h-33.871m33.871 33.898v33.899m0-33.899h-33.871m33.871 33.899v33.898m0-33.898h-33.871m33.871 33.898v33.899m0-33.899h-33.871m33.871 33.899v33.898m0-33.898h-33.871m33.871 33.898v36.723m0-36.723h-33.871m33.871 36.723v33.899m0-33.899h-33.871m33.871 33.899v33.898m0-33.898h-33.871m33.871 33.898v33.899m0-33.899h-33.871m33.871 33.899h-33.871m33.871 0v67.797m-33.871-375.708v33.898m0-33.898h-33.87m33.87 33.898v33.899m0-33.899h-33.87m33.87 33.899v33.898m0-33.898h-33.87m33.87 33.898v33.899m0-33.899h-33.87m33.87 33.899v33.898m0-33.898h-33.87m33.87 33.898v36.723m0-36.723h-33.87m33.87 36.723v33.899m0-33.899h-33.87m33.87 33.899v33.898m0-33.898h-33.87m33.87 33.898v33.899m0-33.899h-33.87m33.87 33.899h-33.87m33.87 0v67.797m-33.87-375.708v33.898m0 0v33.899m0 0v33.898m0 0v33.899m0 0v33.898m0 0v36.723m0 0v33.899m0 0v33.898m0 0v33.899m0 0v67.797M294.4 577.822h33.871m-33.871 0v-36.723m0 36.723v33.899m0-70.622h33.871m-33.871 0v-33.898m0 0h33.871m-33.871 0v-33.899m0 0h33.871m-33.871 0v-33.898m0 0h33.871m-33.871 0v-33.899m0 0h33.871m-33.871 0v-33.898m0 0h33.871M294.4 611.721h33.871m-33.871 0v33.898m0 0h33.871m-33.871 0v33.899m0 0h33.871m-33.871 0v67.797m33.871-375.708v33.898m0-33.898h33.87m-33.87 33.898v33.899m0-33.899h33.87m-33.87 33.899v33.898m0-33.898h33.87m-33.87 33.898v33.899m0-33.899h33.87m-33.87 33.899v33.898m0-33.898h33.87m-33.87 33.898v36.723m0-36.723h33.87m-33.87 36.723v33.899m0-33.899h33.87m-33.87 33.899v33.898m0-33.898h33.87m-33.87 33.898v33.899m0-33.899h33.87m-33.87 33.899h33.87m-33.87 0v67.797m67.741-375.708v33.898m0-33.898h-33.871m33.871 0h33.871m-33.871 33.898v33.899m0-33.899h-33.871m33.871 0h33.871m-33.871 33.899v33.898m0-33.898h-33.871m33.871 0h33.871m-33.871 33.898v33.899m0-33.899h-33.871m33.871 0h33.871m-33.871 33.899v33.898m0-33.898h-33.871m33.871 0h33.871m-33.871 33.898v36.723m0-36.723h-33.871m33.871 0h33.871m-33.871 36.723v33.899m0-33.899h-33.871m33.871 0h33.871m-33.871 33.899v33.898m0-33.898h-33.871m33.871 0h33.871m-33.871 33.898v33.899m0-33.899h-33.871m33.871 0h33.871m-33.871 33.899h-33.871m33.871 0h33.871m-33.871 0v67.797m-33.871-375.708v33.898m0 0v33.899m0 0v33.898m0 0v33.899m0 0v33.898m0 0v36.723m0 0v33.899m0 0v33.898m0 0v33.899m0 0v67.797m67.742-375.708v33.898m0-33.898h33.87m-33.87 33.898v33.899m0-33.899h33.87m-33.87 33.899v33.898m0-33.898h33.87m-33.87 33.898v33.899m0-33.899h33.87m-33.87 33.899v33.898m0-33.898h33.87m-33.87 33.898v36.723m0-36.723h33.87m-33.87 36.723v33.899m0-33.899h33.87m-33.87 33.899v33.898m0-33.898h33.87m-33.87 33.898v33.899m0-33.899h33.87m-33.87 33.899h33.87m-33.87 0v67.797m33.87-375.708v33.898m0-33.898h33.871m-33.871 33.898v33.899m0-33.899h33.871m-33.871 33.899v33.898m0-33.898h33.871m-33.871 33.898v33.899m0-33.899h33.871m-33.871 33.899v33.898m0-33.898h33.871m-33.871 33.898v36.723m0-36.723h33.871m-33.871 36.723v33.899m0-33.899h33.871m-33.871 33.899v33.898m0-33.898h33.871m-33.871 33.898v33.899m0-33.899h33.871m-33.871 33.899h33.871m-33.871 0v67.797m33.871-375.708v33.898m0-33.898h33.871m-33.871 33.898v33.899m0-33.899h33.871m-33.871 33.899v33.898m0-33.898h33.871m-33.871 33.898v33.899m0-33.899h33.871m-33.871 33.899v33.898m0-33.898h33.871m-33.871 33.898v36.723m0-36.723h33.871m-33.871 36.723v33.899m0-33.899h33.871m-33.871 33.899v33.898m0-33.898h33.871m-33.871 33.898v33.899m0-33.899h33.871m-33.871 33.899h33.871m-33.871 0v67.797m138.305-375.708v33.898m0-33.898h-36.693m36.693 0H669.8m-33.871 33.898v33.899m0-33.899h-36.693m36.693 0H669.8m-33.871 33.899v33.898m0-33.898h-36.693m36.693 0H669.8m-33.871 33.898v33.899m0-33.899h-36.693m36.693 0H669.8m-33.871 33.899v33.898m0-33.898h-36.693m36.693 0H669.8m-33.871 33.898v36.723m0-36.723h-36.693m36.693 0H669.8m-33.871 36.723v33.899m0-33.899h-36.693m36.693 0H669.8m-33.871 33.899v33.898m0-33.898h-36.693m36.693 0H669.8m-33.871 33.898v33.899m0-33.899h-36.693m36.693 0H669.8m-33.871 33.899h-36.693m36.693 0H669.8m-33.871 0v67.797m-36.693-375.708v33.898m0-33.898h-33.871m33.871 33.898v33.899m0-33.899h-33.871m33.871 33.899v33.898m0-33.898h-33.871m33.871 33.898v33.899m0-33.899h-33.871m33.871 33.899v33.898m0-33.898h-33.871m33.871 33.898v36.723m0-36.723h-33.871m33.871 36.723v33.899m0-33.899h-33.871m33.871 33.899v33.898m0-33.898h-33.871m33.871 33.898v33.899m0-33.899h-33.871m33.871 33.899h-33.871m33.871 0v67.797m-33.871-375.708v33.898m0-33.898h-33.87m33.87 33.898v33.899m0-33.899h-33.87m33.87 33.899v33.898m0-33.898h-33.87m33.87 33.898v33.899m0-33.899h-33.87m33.87 33.899v33.898m0-33.898h-33.87m33.87 33.898v36.723m0-36.723h-33.87m33.87 36.723v33.899m0-33.899h-33.87m33.87 33.899v33.898m0-33.898h-33.87m33.87 33.898v33.899m0-33.899h-33.87m33.87 33.899h-33.87m33.87 0v67.797m-33.87-375.708v33.898m0 0v33.899m0 0v33.898m0 0v33.899m0 0v33.898m0 0v36.723m0 0v33.899m0 0v33.898m0 0v33.899m0 0v67.797M669.8 577.822h33.871m-33.871 0v-36.723m0 36.723v33.899m0-70.622h33.871m-33.871 0v-33.898m0 0h33.871m-33.871 0v-33.899m0 0h33.871m-33.871 0v-33.898m0 0h33.871m-33.871 0v-33.899m0 0h33.871m-33.871 0v-33.898m0 0h33.871M669.8 611.721h33.871m-33.871 0v33.898m0 0h33.871m-33.871 0v33.899m0 0h33.871m-33.871 0v67.797m33.871-375.708v33.898m0-33.898h33.87m-33.87 33.898v33.899m0-33.899h33.87m-33.87 33.899v33.898m0-33.898h33.87m-33.87 33.898v33.899m0-33.899h33.87m-33.87 33.899v33.898m0-33.898h33.87m-33.87 33.898v36.723m0-36.723h33.87m-33.87 36.723v33.899m0-33.899h33.87m-33.87 33.899v33.898m0-33.898h33.87m-33.87 33.898v33.899m0-33.899h33.87m-33.87 33.899h33.87m-33.87 0v67.797m67.741-375.708v33.898m0-33.898h-33.871m33.871 0h33.871m-33.871 33.898v33.899m0-33.899h-33.871m33.871 0h33.871m-33.871 33.899v33.898m0-33.898h-33.871m33.871 0h33.871m-33.871 33.898v33.899m0-33.899h-33.871m33.871 0h33.871m-33.871 33.899v33.898m0-33.898h-33.871m33.871 0h33.871m-33.871 33.898v36.723m0-36.723h-33.871m33.871 0h33.871m-33.871 36.723v33.899m0-33.899h-33.871m33.871 0h33.871m-33.871 33.899v33.898m0-33.898h-33.871m33.871 0h33.871m-33.871 33.898v33.899m0-33.899h-33.871m33.871 0h33.871m-33.871 33.899h-33.871m33.871 0h33.871m-33.871 0v67.797m-33.871-375.708v33.898m0 0v33.899m0 0v33.898m0 0v33.899m0 0v33.898m0 0v36.723m0 0v33.899m0 0v33.898m0 0v33.899m0 0v67.797m67.742-375.708v33.898m0-33.898h33.87m-33.87 33.898v33.899m0-33.899h33.87m-33.87 33.899v33.898m0-33.898h33.87m-33.87 33.898v33.899m0-33.899h33.87m-33.87 33.899v33.898m0-33.898h33.87m-33.87 33.898v36.723m0-36.723h33.87m-33.87 36.723v33.899m0-33.899h33.87m-33.87 33.899v33.898m0-33.898h33.87m-33.87 33.898v33.899m0-33.899h33.87m-33.87 33.899h33.87m-33.87 0v67.797m33.87-375.708v33.898m0-33.898h33.871m-33.871 33.898v33.899m0-33.899h33.871m-33.871 33.899v33.898m0-33.898h33.871m-33.871 33.898v33.899m0-33.899h33.871m-33.871 33.899v33.898m0-33.898h33.871m-33.871 33.898v36.723m0-36.723h33.871m-33.871 36.723v33.899m0-33.899h33.871m-33.871 33.899v33.898m0-33.898h33.871m-33.871 33.898v33.899m0-33.899h33.871m-33.871 33.899h33.871m-33.871 0v67.797m33.871-375.708v33.898m0-33.898h33.871m-33.871 33.898v33.899m0-33.899h33.871m-33.871 33.899v33.898m0-33.898h33.871m-33.871 33.898v33.899m0-33.899h33.871m-33.871 33.899v33.898m0-33.898h33.871m-33.871 33.898v36.723m0-36.723h33.871m-33.871 36.723v33.899m0-33.899h33.871m-33.871 33.899v33.898m0-33.898h33.871m-33.871 33.898v33.899m0-33.899h33.871m-33.871 33.899h33.871m-33.871 0v67.797m138.306-375.708v33.898m0-33.898h-36.694m36.694 0h33.87m-33.87 33.898v33.899m0-33.899h-36.694m36.694 0h33.87m-33.87 33.899v33.898m0-33.898h-36.694m36.694 0h33.87m-33.87 33.898v33.899m0-33.899h-36.694m36.694 0h33.87m-33.87 33.899v33.898m0-33.898h-36.694m36.694 0h33.87m-33.87 33.898v36.723m0-36.723h-36.694m36.694 0h33.87m-33.87 36.723v33.899m0-33.899h-36.694m36.694 0h33.87m-33.87 33.899v33.898m0-33.898h-36.694m36.694 0h33.87m-33.87 33.898v33.899m0-33.899h-36.694m36.694 0h33.87m-33.87 33.899h-36.694m36.694 0h33.87m-33.87 0v67.797m-36.694-375.708v33.898m0-33.898h-33.871m33.871 33.898v33.899m0-33.899h-33.871m33.871 33.899v33.898m0-33.898h-33.871m33.871 33.898v33.899m0-33.899h-33.871m33.871 33.899v33.898m0-33.898h-33.871m33.871 33.898v36.723m0-36.723h-33.871m33.871 36.723v33.899m0-33.899h-33.871m33.871 33.899v33.898m0-33.898h-33.871m33.871 33.898v33.899m0-33.899h-33.871m33.871 33.899h-33.871m33.871 0v67.797m-33.871-375.708v33.898m0-33.898h-33.87m33.87 33.898v33.899m0-33.899h-33.87m33.87 33.899v33.898m0-33.898h-33.87m33.87 33.898v33.899m0-33.899h-33.87m33.87 33.899v33.898m0-33.898h-33.87m33.87 33.898v36.723m0-36.723h-33.87m33.87 36.723v33.899m0-33.899h-33.87m33.87 33.899v33.898m0-33.898h-33.87m33.87 33.898v33.899m0-33.899h-33.87m33.87 33.899h-33.87m33.87 0v67.797m-33.87-375.708v33.898m0 0v33.899m0 0v33.898m0 0v33.899m0 0v33.898m0 0v36.723m0 0v33.899m0 0v33.898m0 0v33.899m0 0v67.797M1045.2 577.822h33.87m-33.87 0v-36.723m0 36.723v33.899m0-70.622h33.87m-33.87 0v-33.898m0 0h33.87m-33.87 0v-33.899m0 0h33.87m-33.87 0v-33.898m0 0h33.87m-33.87 0v-33.899m0 0h33.87m-33.87 0v-33.898m0 0h33.87m-33.87 240.114h33.87m-33.87 0v33.898m0 0h33.87m-33.87 0v33.899m0 0h33.87m-33.87 0v67.797m33.87-375.708v33.898m0-33.898h33.87m-33.87 33.898v33.899m0-33.899h33.87m-33.87 33.899v33.898m0-33.898h33.87m-33.87 33.898v33.899m0-33.899h33.87m-33.87 33.899v33.898m0-33.898h33.87m-33.87 33.898v36.723m0-36.723h33.87m-33.87 36.723v33.899m0-33.899h33.87m-33.87 33.899v33.898m0-33.898h33.87m-33.87 33.898v33.899m0-33.899h33.87m-33.87 33.899h33.87m-33.87 0v67.797m67.74-375.708v33.898m0-33.898h-33.87m33.87 0h33.87m-33.87 33.898v33.899m0-33.899h-33.87m33.87 0h33.87m-33.87 33.899v33.898m0-33.898h-33.87m33.87 0h33.87m-33.87 33.898v33.899m0-33.899h-33.87m33.87 0h33.87m-33.87 33.899v33.898m0-33.898h-33.87m33.87 0h33.87m-33.87 33.898v36.723m0-36.723h-33.87m33.87 0h33.87m-33.87 36.723v33.899m0-33.899h-33.87m33.87 0h33.87m-33.87 33.899v33.898m0-33.898h-33.87m33.87 0h33.87m-33.87 33.898v33.899m0-33.899h-33.87m33.87 0h33.87m-33.87 33.899h-33.87m33.87 0h33.87m-33.87 0v67.797m-33.87-375.708v33.898m0 0v33.899m0 0v33.898m0 0v33.899m0 0v33.898m0 0v36.723m0 0v33.899m0 0v33.898m0 0v33.899m0 0v67.797m67.74-375.708v33.898m0-33.898h33.87m-33.87 33.898v33.899m0-33.899h33.87m-33.87 33.899v33.898m0-33.898h33.87m-33.87 33.898v33.899m0-33.899h33.87m-33.87 33.899v33.898m0-33.898h33.87m-33.87 33.898v36.723m0-36.723h33.87m-33.87 36.723v33.899m0-33.899h33.87m-33.87 33.899v33.898m0-33.898h33.87m-33.87 33.898v33.899m0-33.899h33.87m-33.87 33.899h33.87m-33.87 0v67.797m33.87-375.708v33.898m0-33.898h33.87m-33.87 33.898v33.899m0-33.899h33.87m-33.87 33.899v33.898m0-33.898h33.87m-33.87 33.898v33.899m0-33.899h33.87m-33.87 33.899v33.898m0-33.898h33.87m-33.87 33.898v36.723m0-36.723h33.87m-33.87 36.723v33.899m0-33.899h33.87m-33.87 33.899v33.898m0-33.898h33.87m-33.87 33.898v33.899m0-33.899h33.87m-33.87 33.899h33.87m-33.87 0v67.797m33.87-375.708v33.898m0-33.898h33.87m-33.87 33.898v33.899m0-33.899h33.87m-33.87 33.899v33.898m0-33.898h33.87m-33.87 33.898v33.899m0-33.899h33.87m-33.87 33.899v33.898m0-33.898h33.87m-33.87 33.898v36.723m0-36.723h33.87m-33.87 36.723v33.899m0-33.899h33.87m-33.87 33.899v33.898m0-33.898h33.87m-33.87 33.898v33.899m0-33.899h33.87m-33.87 33.899h33.87m-33.87 0v67.797m138.31-375.708v33.898m0-33.898h-36.69m36.69 0h33.87m-33.87 33.898v33.899m0-33.899h-36.69m36.69 0h33.87m-33.87 33.899v33.898m0-33.898h-36.69m36.69 0h33.87m-33.87 33.898v33.899m0-33.899h-36.69m36.69 0h33.87m-33.87 33.899v33.898m0-33.898h-36.69m36.69 0h33.87m-33.87 33.898v36.723m0-36.723h-36.69m36.69 0h33.87m-33.87 36.723v33.899m0-33.899h-36.69m36.69 0h33.87m-33.87 33.899v33.898m0-33.898h-36.69m36.69 0h33.87m-33.87 33.898v33.899m0-33.899h-36.69m36.69 0h33.87m-33.87 33.899h-36.69m36.69 0h33.87m-33.87 0v67.797m-36.69-375.708v33.898m0-33.898h-33.87m33.87 33.898v33.899m0-33.899h-33.87m33.87 33.899v33.898m0-33.898h-33.87m33.87 33.898v33.899m0-33.899h-33.87m33.87 33.899v33.898m0-33.898h-33.87m33.87 33.898v36.723m0-36.723h-33.87m33.87 36.723v33.899m0-33.899h-33.87m33.87 33.899v33.898m0-33.898h-33.87m33.87 33.898v33.899m0-33.899h-33.87m33.87 33.899h-33.87m33.87 0v67.797m-33.87-375.708v33.898m0-33.898h-33.88m33.88 33.898v33.899m0-33.899h-33.88m33.88 33.899v33.898m0-33.898h-33.88m33.88 33.898v33.899m0-33.899h-33.88m33.88 33.899v33.898m0-33.898h-33.88m33.88 33.898v36.723m0-36.723h-33.88m33.88 36.723v33.899m0-33.899h-33.88m33.88 33.899v33.898m0-33.898h-33.88m33.88 33.898v33.899m0-33.899h-33.88m33.88 33.899h-33.88m33.88 0v67.797m-33.88-375.708v33.898m0 0v33.899m0 0v33.898m0 0v33.899m0 0v33.898m0 0v36.723m0 0v33.899m0 0v33.898m0 0v33.899m0 0v67.797m138.31-169.493h33.87m-33.87 0v-36.723m0 36.723v33.899m0-70.622h33.87m-33.87 0v-33.898m0 0h33.87m-33.87 0v-33.899m0 0h33.87m-33.87 0v-33.898m0 0h33.87m-33.87 0v-33.899m0 0h33.87m-33.87 0v-33.898m0 0h33.87m-33.87 240.114h33.87m-33.87 0v33.898m0 0h33.87m-33.87 0v33.899m0 0h33.87m-33.87 0v67.797m33.87-375.708v33.898m0-33.898h33.87m-33.87 33.898v33.899m0-33.899h33.87m-33.87 33.899v33.898m0-33.898h33.87m-33.87 33.898v33.899m0-33.899h33.87m-33.87 33.899v33.898m0-33.898h33.87m-33.87 33.898v36.723m0-36.723h33.87m-33.87 36.723v33.899m0-33.899h33.87m-33.87 33.899v33.898m0-33.898h33.87m-33.87 33.898v33.899m0-33.899h33.87m-33.87 33.899h33.87m-33.87 0v67.797m67.74-375.708v33.898m0-33.898h-33.87m33.87 0h33.87m-33.87 33.898v33.899m0-33.899h-33.87m33.87 0h33.87m-33.87 33.899v33.898m0-33.898h-33.87m33.87 0h33.87m-33.87 33.898v33.899m0-33.899h-33.87m33.87 0h33.87m-33.87 33.899v33.898m0-33.898h-33.87m33.87 0h33.87m-33.87 33.898v36.723m0-36.723h-33.87m33.87 0h33.87m-33.87 36.723v33.899m0-33.899h-33.87m33.87 0h33.87m-33.87 33.899v33.898m0-33.898h-33.87m33.87 0h33.87m-33.87 33.898v33.899m0-33.899h-33.87m33.87 0h33.87m-33.87 33.899h-33.87m33.87 0h33.87m-33.87 0v67.797m-33.87-375.708v33.898m0 0v33.899m0 0v33.898m0 0v33.899m0 0v33.898m0 0v36.723m0 0v33.899m0 0v33.898m0 0v33.899m0 0v67.797m67.74-375.708v33.898m0-33.898h33.87m-33.87 33.898v33.899m0-33.899h33.87m-33.87 33.899v33.898m0-33.898h33.87m-33.87 33.898v33.899m0-33.899h33.87m-33.87 33.899v33.898m0-33.898h33.87m-33.87 33.898v36.723m0-36.723h33.87m-33.87 36.723v33.899m0-33.899h33.87m-33.87 33.899v33.898m0-33.898h33.87m-33.87 33.898v33.899m0-33.899h33.87m-33.87 33.899h33.87m-33.87 0v67.797m33.87-375.708v33.898m0-33.898h33.87m-33.87 33.898v33.899m0-33.899h33.87m-33.87 33.899v33.898m0-33.898h33.87m-33.87 33.898v33.899m0-33.899h33.87m-33.87 33.899v33.898m0-33.898h33.87m-33.87 33.898v36.723m0-36.723h33.87m-33.87 36.723v33.899m0-33.899h33.87m-33.87 33.899v33.898m0-33.898h33.87m-33.87 33.898v33.899m0-33.899h33.87m-33.87 33.899h33.87m-33.87 0v67.797m33.87-375.708v33.898m0-33.898h33.87m-33.87 33.898v33.899m0-33.899h33.87m-33.87 33.899v33.898m0-33.898h33.87m-33.87 33.898v33.899m0-33.899h33.87m-33.87 33.899v33.898m0-33.898h33.87m-33.87 33.898v36.723m0-36.723h33.87m-33.87 36.723v33.899m0-33.899h33.87m-33.87 33.899v33.898m0-33.898h33.87m-33.87 33.898v33.899m0-33.899h33.87m-33.87 33.899h33.87m-33.87 0v67.797m138.31-375.708v33.898m0-33.898h-36.69m36.69 0H1796m-33.87 33.898v33.899m0-33.899h-36.69m36.69 0H1796m-33.87 33.899v33.898m0-33.898h-36.69m36.69 0H1796m-33.87 33.898v33.899m0-33.899h-36.69m36.69 0H1796m-33.87 33.899v33.898m0-33.898h-36.69m36.69 0H1796m-33.87 33.898v36.723m0-36.723h-36.69m36.69 0H1796m-33.87 36.723v33.899m0-33.899h-36.69m36.69 0H1796m-33.87 33.899v33.898m0-33.898h-36.69m36.69 0H1796m-33.87 33.898v33.899m0-33.899h-36.69m36.69 0H1796m-33.87 33.899h-36.69m36.69 0H1796m-33.87 0v67.797m-36.69-375.708v33.898m0-33.898h-33.87m33.87 33.898v33.899m0-33.899h-33.87m33.87 33.899v33.898m0-33.898h-33.87m33.87 33.898v33.899m0-33.899h-33.87m33.87 33.899v33.898m0-33.898h-33.87m33.87 33.898v36.723m0-36.723h-33.87m33.87 36.723v33.899m0-33.899h-33.87m33.87 33.899v33.898m0-33.898h-33.87m33.87 33.898v33.899m0-33.899h-33.87m33.87 33.899h-33.87m33.87 0v67.797m-33.87-375.708v33.898m0-33.898h-33.88m33.88 33.898v33.899m0-33.899h-33.88m33.88 33.899v33.898m0-33.898h-33.88m33.88 33.898v33.899m0-33.899h-33.88m33.88 33.899v33.898m0-33.898h-33.88m33.88 33.898v36.723m0-36.723h-33.88m33.88 36.723v33.899m0-33.899h-33.88m33.88 33.899v33.898m0-33.898h-33.88m33.88 33.898v33.899m0-33.899h-33.88m33.88 33.899h-33.88m33.88 0v67.797m-33.88-375.708v33.898m0 0v33.899m0 0v33.898m0 0v33.899m0 0v33.898m0 0v36.723m0 0v33.899m0 0v33.898m0 0v33.899m0 0v67.797M-81 713.416h1877M-47.13 747.315v33.898m0-33.898H-81m33.87 0h33.871m-33.87 33.898v33.899m0-33.899H-81m33.87 0h33.871m-33.87 33.899v33.898m0-33.898H-81m33.87 0h33.871m-33.87 33.898v33.899m0-33.899H-81m33.87 0h33.871m-33.87 33.899v33.898m0-33.898H-81m33.87 0h33.871m-33.87 33.898v36.724m0-36.724H-81m33.87 0h33.871m-33.87 36.724v33.898m0-33.898H-81m33.87 0h33.871m-33.87 33.898v33.901m0-33.901H-81m33.87 0h33.871m-33.87 33.901v33.9m0-33.9H-81m33.87 0h33.871m-33.87 33.9v33.89m0-33.89H-81m33.87 0h33.871m33.871-307.915v33.898m0-33.898h-33.87m33.87 0h33.87m-33.87 33.898v33.899m0-33.899h-33.87m33.87 0h33.87m-33.87 33.899v33.898m0-33.898h-33.87m33.87 0h33.87m-33.87 33.898v33.899m0-33.899h-33.87m33.87 0h33.87m-33.87 33.899v33.898m0-33.898h-33.87m33.87 0h33.87m-33.87 33.898v36.724m0-36.724h-33.87m33.87 0h33.87m-33.87 36.724v33.898m0-33.898h-33.87m33.87 0h33.87m-33.87 33.898v33.901m0-33.901h-33.87m33.87 0h33.87m-33.87 33.901v33.9m0-33.9h-33.87m33.87 0h33.87m-33.87 33.9v33.89m0-33.89h-33.87m33.87 0h33.87m-67.74-307.915v33.898m0 0v33.899m0 0v33.898m0 0v33.899m0 0v33.898m0 0v36.724m0 0v33.898m0 0v33.901m0 0v33.9m0 0v33.89m67.74-341.805v33.898m0-33.898h33.871m-33.87 33.898v33.899m0-33.899h33.87m-33.87 33.899v33.898m0-33.898h33.87m-33.87 33.898v33.899m0-33.899h33.87m-33.87 33.899v33.898m0-33.898h33.87m-33.87 33.898v36.724m0-36.724h33.87m-33.87 36.724v33.898m0-33.898h33.87m-33.87 33.898v33.901m0-33.901h33.87m-33.87 33.901v33.9m0-33.9h33.87m-33.87 33.9v33.89m0-33.89h33.87m0-307.915v33.898m0-33.898h33.871m-33.87 33.898v33.899m0-33.899h33.87m-33.87 33.899v33.898m0-33.898h33.87m-33.87 33.898v33.899m0-33.899h33.87m-33.87 33.899v33.898m0-33.898h33.87m-33.87 33.898v36.724m0-36.724h33.87m-33.87 36.724v33.898m0-33.898h33.87m-33.87 33.898v33.901m0-33.901h33.87m-33.87 33.901v33.9m0-33.9h33.87m-33.87 33.9v33.89m0-33.89h33.87m0-307.915v33.898m0-33.898h33.871m-33.871 33.898v33.899m0-33.899h33.871m-33.871 33.899v33.898m0-33.898h33.871m-33.871 33.898v33.899m0-33.899h33.871m-33.871 33.899v33.898m0-33.898h33.871m-33.871 33.898v36.724m0-36.724h33.871m-33.871 36.724v33.898m0-33.898h33.871m-33.871 33.898v33.901m0-33.901h33.871m-33.871 33.901v33.9m0-33.9h33.871m-33.871 33.9v33.89m0-33.89h33.871m104.434-307.915v33.898m0-33.898h-36.693m36.693 0H294.4m-33.871 33.898v33.899m0-33.899h-36.693m36.693 0H294.4m-33.871 33.899v33.898m0-33.898h-36.693m36.693 0H294.4m-33.871 33.898v33.899m0-33.899h-36.693m36.693 0H294.4m-33.871 33.899v33.898m0-33.898h-36.693m36.693 0H294.4m-33.871 33.898v36.724m0-36.724h-36.693m36.693 0H294.4m-33.871 36.724v33.898m0-33.898h-36.693m36.693 0H294.4m-33.871 33.898v33.901m0-33.901h-36.693m36.693 0H294.4m-33.871 33.901v33.9m0-33.9h-36.693m36.693 0H294.4m-33.871 33.9v33.89m0-33.89h-36.693m36.693 0H294.4m-70.564-307.915v33.898m0-33.898h-33.871m33.871 33.898v33.899m0-33.899h-33.871m33.871 33.899v33.898m0-33.898h-33.871m33.871 33.898v33.899m0-33.899h-33.871m33.871 33.899v33.898m0-33.898h-33.871m33.871 33.898v36.724m0-36.724h-33.871m33.871 36.724v33.898m0-33.898h-33.871m33.871 33.898v33.901m0-33.901h-33.871m33.871 33.901v33.9m0-33.9h-33.871m33.871 33.9v33.89m0-33.89h-33.871m0-307.915v33.898m0-33.898h-33.87m33.87 33.898v33.899m0-33.899h-33.87m33.87 33.899v33.898m0-33.898h-33.87m33.87 33.898v33.899m0-33.899h-33.87m33.87 33.899v33.898m0-33.898h-33.87m33.87 33.898v36.724m0-36.724h-33.87m33.87 36.724v33.898m0-33.898h-33.87m33.87 33.898v33.901m0-33.901h-33.87m33.87 33.901v33.9m0-33.9h-33.87m33.87 33.9v33.89m0-33.89h-33.87m0-307.915v33.898m0 0v33.899m0 0v33.898m0 0v33.899m0 0v33.898m0 0v36.724m0 0v33.898m0 0v33.901m0 0v33.9m0 0v33.89M294.4 953.531h33.871m-33.871 0v-36.724m0 36.724v33.898m0-70.622h33.871m-33.871 0v-33.898m0 0h33.871m-33.871 0V849.01m0 0h33.871m-33.871 0v-33.898m0 0h33.871m-33.871 0v-33.899m0 0h33.871m-33.871 0v-33.898m0 0h33.871M294.4 987.429h33.871m-33.871 0v33.901m0 0h33.871m-33.871 0v33.9m0 0h33.871m-33.871 0v33.89m33.871-341.805v33.898m0-33.898h33.87m-33.87 33.898v33.899m0-33.899h33.87m-33.87 33.899v33.898m0-33.898h33.87m-33.87 33.898v33.899m0-33.899h33.87m-33.87 33.899v33.898m0-33.898h33.87m-33.87 33.898v36.724m0-36.724h33.87m-33.87 36.724v33.898m0-33.898h33.87m-33.87 33.898v33.901m0-33.901h33.87m-33.87 33.901v33.9m0-33.9h33.87m-33.87 33.9v33.89m0-33.89h33.87m33.871-307.915v33.898m0-33.898h-33.871m33.871 0h33.871m-33.871 33.898v33.899m0-33.899h-33.871m33.871 0h33.871m-33.871 33.899v33.898m0-33.898h-33.871m33.871 0h33.871m-33.871 33.898v33.899m0-33.899h-33.871m33.871 0h33.871m-33.871 33.899v33.898m0-33.898h-33.871m33.871 0h33.871m-33.871 33.898v36.724m0-36.724h-33.871m33.871 0h33.871m-33.871 36.724v33.898m0-33.898h-33.871m33.871 0h33.871m-33.871 33.898v33.901m0-33.901h-33.871m33.871 0h33.871m-33.871 33.901v33.9m0-33.9h-33.871m33.871 0h33.871m-33.871 33.9v33.89m0-33.89h-33.871m33.871 0h33.871m-67.742-307.915v33.898m0 0v33.899m0 0v33.898m0 0v33.899m0 0v33.898m0 0v36.724m0 0v33.898m0 0v33.901m0 0v33.9m0 0v33.89m67.742-341.805v33.898m0-33.898h33.87m-33.87 33.898v33.899m0-33.899h33.87m-33.87 33.899v33.898m0-33.898h33.87m-33.87 33.898v33.899m0-33.899h33.87m-33.87 33.899v33.898m0-33.898h33.87m-33.87 33.898v36.724m0-36.724h33.87m-33.87 36.724v33.898m0-33.898h33.87m-33.87 33.898v33.901m0-33.901h33.87m-33.87 33.901v33.9m0-33.9h33.87m-33.87 33.9v33.89m0-33.89h33.87m0-307.915v33.898m0-33.898h33.871m-33.871 33.898v33.899m0-33.899h33.871m-33.871 33.899v33.898m0-33.898h33.871m-33.871 33.898v33.899m0-33.899h33.871m-33.871 33.899v33.898m0-33.898h33.871m-33.871 33.898v36.724m0-36.724h33.871m-33.871 36.724v33.898m0-33.898h33.871m-33.871 33.898v33.901m0-33.901h33.871m-33.871 33.901v33.9m0-33.9h33.871m-33.871 33.9v33.89m0-33.89h33.871m0-307.915v33.898m0-33.898h33.871m-33.871 33.898v33.899m0-33.899h33.871m-33.871 33.899v33.898m0-33.898h33.871m-33.871 33.898v33.899m0-33.899h33.871m-33.871 33.899v33.898m0-33.898h33.871m-33.871 33.898v36.724m0-36.724h33.871m-33.871 36.724v33.898m0-33.898h33.871m-33.871 33.898v33.901m0-33.901h33.871m-33.871 33.901v33.9m0-33.9h33.871m-33.871 33.9v33.89m0-33.89h33.871m104.434-307.915v33.898m0-33.898h-36.693m36.693 0H669.8m-33.871 33.898v33.899m0-33.899h-36.693m36.693 0H669.8m-33.871 33.899v33.898m0-33.898h-36.693m36.693 0H669.8m-33.871 33.898v33.899m0-33.899h-36.693m36.693 0H669.8m-33.871 33.899v33.898m0-33.898h-36.693m36.693 0H669.8m-33.871 33.898v36.724m0-36.724h-36.693m36.693 0H669.8m-33.871 36.724v33.898m0-33.898h-36.693m36.693 0H669.8m-33.871 33.898v33.901m0-33.901h-36.693m36.693 0H669.8m-33.871 33.901v33.9m0-33.9h-36.693m36.693 0H669.8m-33.871 33.9v33.89m0-33.89h-36.693m36.693 0H669.8m-70.564-307.915v33.898m0-33.898h-33.871m33.871 33.898v33.899m0-33.899h-33.871m33.871 33.899v33.898m0-33.898h-33.871m33.871 33.898v33.899m0-33.899h-33.871m33.871 33.899v33.898m0-33.898h-33.871m33.871 33.898v36.724m0-36.724h-33.871m33.871 36.724v33.898m0-33.898h-33.871m33.871 33.898v33.901m0-33.901h-33.871m33.871 33.901v33.9m0-33.9h-33.871m33.871 33.9v33.89m0-33.89h-33.871m0-307.915v33.898m0-33.898h-33.87m33.87 33.898v33.899m0-33.899h-33.87m33.87 33.899v33.898m0-33.898h-33.87m33.87 33.898v33.899m0-33.899h-33.87m33.87 33.899v33.898m0-33.898h-33.87m33.87 33.898v36.724m0-36.724h-33.87m33.87 36.724v33.898m0-33.898h-33.87m33.87 33.898v33.901m0-33.901h-33.87m33.87 33.901v33.9m0-33.9h-33.87m33.87 33.9v33.89m0-33.89h-33.87m0-307.915v33.898m0 0v33.899m0 0v33.898m0 0v33.899m0 0v33.898m0 0v36.724m0 0v33.898m0 0v33.901m0 0v33.9m0 0v33.89M669.8 953.531h33.871m-33.871 0v-36.724m0 36.724v33.898m0-70.622h33.871m-33.871 0v-33.898m0 0h33.871m-33.871 0V849.01m0 0h33.871m-33.871 0v-33.898m0 0h33.871m-33.871 0v-33.899m0 0h33.871m-33.871 0v-33.898m0 0h33.871M669.8 987.429h33.871m-33.871 0v33.901m0 0h33.871m-33.871 0v33.9m0 0h33.871m-33.871 0v33.89m33.871-341.805v33.898m0-33.898h33.87m-33.87 33.898v33.899m0-33.899h33.87m-33.87 33.899v33.898m0-33.898h33.87m-33.87 33.898v33.899m0-33.899h33.87m-33.87 33.899v33.898m0-33.898h33.87m-33.87 33.898v36.724m0-36.724h33.87m-33.87 36.724v33.898m0-33.898h33.87m-33.87 33.898v33.901m0-33.901h33.87m-33.87 33.901v33.9m0-33.9h33.87m-33.87 33.9v33.89m0-33.89h33.87m33.871-307.915v33.898m0-33.898h-33.871m33.871 0h33.871m-33.871 33.898v33.899m0-33.899h-33.871m33.871 0h33.871m-33.871 33.899v33.898m0-33.898h-33.871m33.871 0h33.871m-33.871 33.898v33.899m0-33.899h-33.871m33.871 0h33.871m-33.871 33.899v33.898m0-33.898h-33.871m33.871 0h33.871m-33.871 33.898v36.724m0-36.724h-33.871m33.871 0h33.871m-33.871 36.724v33.898m0-33.898h-33.871m33.871 0h33.871m-33.871 33.898v33.901m0-33.901h-33.871m33.871 0h33.871m-33.871 33.901v33.9m0-33.9h-33.871m33.871 0h33.871m-33.871 33.9v33.89m0-33.89h-33.871m33.871 0h33.871m-67.742-307.915v33.898m0 0v33.899m0 0v33.898m0 0v33.899m0 0v33.898m0 0v36.724m0 0v33.898m0 0v33.901m0 0v33.9m0 0v33.89m67.742-341.805v33.898m0-33.898h33.87m-33.87 33.898v33.899m0-33.899h33.87m-33.87 33.899v33.898m0-33.898h33.87m-33.87 33.898v33.899m0-33.899h33.87m-33.87 33.899v33.898m0-33.898h33.87m-33.87 33.898v36.724m0-36.724h33.87m-33.87 36.724v33.898m0-33.898h33.87m-33.87 33.898v33.901m0-33.901h33.87m-33.87 33.901v33.9m0-33.9h33.87m-33.87 33.9v33.89m0-33.89h33.87m0-307.915v33.898m0-33.898h33.871m-33.871 33.898v33.899m0-33.899h33.871m-33.871 33.899v33.898m0-33.898h33.871m-33.871 33.898v33.899m0-33.899h33.871m-33.871 33.899v33.898m0-33.898h33.871m-33.871 33.898v36.724m0-36.724h33.871m-33.871 36.724v33.898m0-33.898h33.871m-33.871 33.898v33.901m0-33.901h33.871m-33.871 33.901v33.9m0-33.9h33.871m-33.871 33.9v33.89m0-33.89h33.871m0-307.915v33.898m0-33.898h33.871m-33.871 33.898v33.899m0-33.899h33.871m-33.871 33.899v33.898m0-33.898h33.871m-33.871 33.898v33.899m0-33.899h33.871m-33.871 33.899v33.898m0-33.898h33.871m-33.871 33.898v36.724m0-36.724h33.871m-33.871 36.724v33.898m0-33.898h33.871m-33.871 33.898v33.901m0-33.901h33.871m-33.871 33.901v33.9m0-33.9h33.871m-33.871 33.9v33.89m0-33.89h33.871m104.435-307.915v33.898m0-33.898h-36.694m36.694 0h33.87m-33.87 33.898v33.899m0-33.899h-36.694m36.694 0h33.87m-33.87 33.899v33.898m0-33.898h-36.694m36.694 0h33.87m-33.87 33.898v33.899m0-33.899h-36.694m36.694 0h33.87m-33.87 33.899v33.898m0-33.898h-36.694m36.694 0h33.87m-33.87 33.898v36.724m0-36.724h-36.694m36.694 0h33.87m-33.87 36.724v33.898m0-33.898h-36.694m36.694 0h33.87m-33.87 33.898v33.901m0-33.901h-36.694m36.694 0h33.87m-33.87 33.901v33.9m0-33.9h-36.694m36.694 0h33.87m-33.87 33.9v33.89m0-33.89h-36.694m36.694 0h33.87m-70.564-307.915v33.898m0-33.898h-33.871m33.871 33.898v33.899m0-33.899h-33.871m33.871 33.899v33.898m0-33.898h-33.871m33.871 33.898v33.899m0-33.899h-33.871m33.871 33.899v33.898m0-33.898h-33.871m33.871 33.898v36.724m0-36.724h-33.871m33.871 36.724v33.898m0-33.898h-33.871m33.871 33.898v33.901m0-33.901h-33.871m33.871 33.901v33.9m0-33.9h-33.871m33.871 33.9v33.89m0-33.89h-33.871m0-307.915v33.898m0-33.898h-33.87m33.87 33.898v33.899m0-33.899h-33.87m33.87 33.899v33.898m0-33.898h-33.87m33.87 33.898v33.899m0-33.899h-33.87m33.87 33.899v33.898m0-33.898h-33.87m33.87 33.898v36.724m0-36.724h-33.87m33.87 36.724v33.898m0-33.898h-33.87m33.87 33.898v33.901m0-33.901h-33.87m33.87 33.901v33.9m0-33.9h-33.87m33.87 33.9v33.89m0-33.89h-33.87m0-307.915v33.898m0 0v33.899m0 0v33.898m0 0v33.899m0 0v33.898m0 0v36.724m0 0v33.898m0 0v33.901m0 0v33.9m0 0v33.89M1045.2 953.531h33.87m-33.87 0v-36.724m0 36.724v33.898m0-70.622h33.87m-33.87 0v-33.898m0 0h33.87m-33.87 0V849.01m0 0h33.87m-33.87 0v-33.898m0 0h33.87m-33.87 0v-33.899m0 0h33.87m-33.87 0v-33.898m0 0h33.87m-33.87 240.114h33.87m-33.87 0v33.901m0 0h33.87m-33.87 0v33.9m0 0h33.87m-33.87 0v33.89m33.87-341.805v33.898m0-33.898h33.87m-33.87 33.898v33.899m0-33.899h33.87m-33.87 33.899v33.898m0-33.898h33.87m-33.87 33.898v33.899m0-33.899h33.87m-33.87 33.899v33.898m0-33.898h33.87m-33.87 33.898v36.724m0-36.724h33.87m-33.87 36.724v33.898m0-33.898h33.87m-33.87 33.898v33.901m0-33.901h33.87m-33.87 33.901v33.9m0-33.9h33.87m-33.87 33.9v33.89m0-33.89h33.87m33.87-307.915v33.898m0-33.898h-33.87m33.87 0h33.87m-33.87 33.898v33.899m0-33.899h-33.87m33.87 0h33.87m-33.87 33.899v33.898m0-33.898h-33.87m33.87 0h33.87m-33.87 33.898v33.899m0-33.899h-33.87m33.87 0h33.87m-33.87 33.899v33.898m0-33.898h-33.87m33.87 0h33.87m-33.87 33.898v36.724m0-36.724h-33.87m33.87 0h33.87m-33.87 36.724v33.898m0-33.898h-33.87m33.87 0h33.87m-33.87 33.898v33.901m0-33.901h-33.87m33.87 0h33.87m-33.87 33.901v33.9m0-33.9h-33.87m33.87 0h33.87m-33.87 33.9v33.89m0-33.89h-33.87m33.87 0h33.87m-67.74-307.915v33.898m0 0v33.899m0 0v33.898m0 0v33.899m0 0v33.898m0 0v36.724m0 0v33.898m0 0v33.901m0 0v33.9m0 0v33.89m67.74-341.805v33.898m0-33.898h33.87m-33.87 33.898v33.899m0-33.899h33.87m-33.87 33.899v33.898m0-33.898h33.87m-33.87 33.898v33.899m0-33.899h33.87m-33.87 33.899v33.898m0-33.898h33.87m-33.87 33.898v36.724m0-36.724h33.87m-33.87 36.724v33.898m0-33.898h33.87m-33.87 33.898v33.901m0-33.901h33.87m-33.87 33.901v33.9m0-33.9h33.87m-33.87 33.9v33.89m0-33.89h33.87m0-307.915v33.898m0-33.898h33.87m-33.87 33.898v33.899m0-33.899h33.87m-33.87 33.899v33.898m0-33.898h33.87m-33.87 33.898v33.899m0-33.899h33.87m-33.87 33.899v33.898m0-33.898h33.87m-33.87 33.898v36.724m0-36.724h33.87m-33.87 36.724v33.898m0-33.898h33.87m-33.87 33.898v33.901m0-33.901h33.87m-33.87 33.901v33.9m0-33.9h33.87m-33.87 33.9v33.89m0-33.89h33.87m0-307.915v33.898m0-33.898h33.87m-33.87 33.898v33.899m0-33.899h33.87m-33.87 33.899v33.898m0-33.898h33.87m-33.87 33.898v33.899m0-33.899h33.87m-33.87 33.899v33.898m0-33.898h33.87m-33.87 33.898v36.724m0-36.724h33.87m-33.87 36.724v33.898m0-33.898h33.87m-33.87 33.898v33.901m0-33.901h33.87m-33.87 33.901v33.9m0-33.9h33.87m-33.87 33.9v33.89m0-33.89h33.87m104.44-307.915v33.898m0-33.898h-36.69m36.69 0h33.87m-33.87 33.898v33.899m0-33.899h-36.69m36.69 0h33.87m-33.87 33.899v33.898m0-33.898h-36.69m36.69 0h33.87m-33.87 33.898v33.899m0-33.899h-36.69m36.69 0h33.87m-33.87 33.899v33.898m0-33.898h-36.69m36.69 0h33.87m-33.87 33.898v36.724m0-36.724h-36.69m36.69 0h33.87m-33.87 36.724v33.898m0-33.898h-36.69m36.69 0h33.87m-33.87 33.898v33.901m0-33.901h-36.69m36.69 0h33.87m-33.87 33.901v33.9m0-33.9h-36.69m36.69 0h33.87m-33.87 33.9v33.89m0-33.89h-36.69m36.69 0h33.87m-70.56-307.915v33.898m0-33.898h-33.87m33.87 33.898v33.899m0-33.899h-33.87m33.87 33.899v33.898m0-33.898h-33.87m33.87 33.898v33.899m0-33.899h-33.87m33.87 33.899v33.898m0-33.898h-33.87m33.87 33.898v36.724m0-36.724h-33.87m33.87 36.724v33.898m0-33.898h-33.87m33.87 33.898v33.901m0-33.901h-33.87m33.87 33.901v33.9m0-33.9h-33.87m33.87 33.9v33.89m0-33.89h-33.87m0-307.915v33.898m0-33.898h-33.88m33.88 33.898v33.899m0-33.899h-33.88m33.88 33.899v33.898m0-33.898h-33.88m33.88 33.898v33.899m0-33.899h-33.88m33.88 33.899v33.898m0-33.898h-33.88m33.88 33.898v36.724m0-36.724h-33.88m33.88 36.724v33.898m0-33.898h-33.88m33.88 33.898v33.901m0-33.901h-33.88m33.88 33.901v33.9m0-33.9h-33.88m33.88 33.9v33.89m0-33.89h-33.88m0-307.915v33.898m0 0v33.899m0 0v33.898m0 0v33.899m0 0v33.898m0 0v36.724m0 0v33.898m0 0v33.901m0 0v33.9m0 0v33.89m138.31-135.589h33.87m-33.87 0v-36.724m0 36.724v33.898m0-70.622h33.87m-33.87 0v-33.898m0 0h33.87m-33.87 0V849.01m0 0h33.87m-33.87 0v-33.898m0 0h33.87m-33.87 0v-33.899m0 0h33.87m-33.87 0v-33.898m0 0h33.87m-33.87 240.114h33.87m-33.87 0v33.901m0 0h33.87m-33.87 0v33.9m0 0h33.87m-33.87 0v33.89m33.87-341.805v33.898m0-33.898h33.87m-33.87 33.898v33.899m0-33.899h33.87m-33.87 33.899v33.898m0-33.898h33.87m-33.87 33.898v33.899m0-33.899h33.87m-33.87 33.899v33.898m0-33.898h33.87m-33.87 33.898v36.724m0-36.724h33.87m-33.87 36.724v33.898m0-33.898h33.87m-33.87 33.898v33.901m0-33.901h33.87m-33.87 33.901v33.9m0-33.9h33.87m-33.87 33.9v33.89m0-33.89h33.87m33.87-307.915v33.898m0-33.898h-33.87m33.87 0h33.87m-33.87 33.898v33.899m0-33.899h-33.87m33.87 0h33.87m-33.87 33.899v33.898m0-33.898h-33.87m33.87 0h33.87m-33.87 33.898v33.899m0-33.899h-33.87m33.87 0h33.87m-33.87 33.899v33.898m0-33.898h-33.87m33.87 0h33.87m-33.87 33.898v36.724m0-36.724h-33.87m33.87 0h33.87m-33.87 36.724v33.898m0-33.898h-33.87m33.87 0h33.87m-33.87 33.898v33.901m0-33.901h-33.87m33.87 0h33.87m-33.87 33.901v33.9m0-33.9h-33.87m33.87 0h33.87m-33.87 33.9v33.89m0-33.89h-33.87m33.87 0h33.87m-67.74-307.915v33.898m0 0v33.899m0 0v33.898m0 0v33.899m0 0v33.898m0 0v36.724m0 0v33.898m0 0v33.901m0 0v33.9m0 0v33.89m67.74-341.805v33.898m0-33.898h33.87m-33.87 33.898v33.899m0-33.899h33.87m-33.87 33.899v33.898m0-33.898h33.87m-33.87 33.898v33.899m0-33.899h33.87m-33.87 33.899v33.898m0-33.898h33.87m-33.87 33.898v36.724m0-36.724h33.87m-33.87 36.724v33.898m0-33.898h33.87m-33.87 33.898v33.901m0-33.901h33.87m-33.87 33.901v33.9m0-33.9h33.87m-33.87 33.9v33.89m0-33.89h33.87m0-307.915v33.898m0-33.898h33.87m-33.87 33.898v33.899m0-33.899h33.87m-33.87 33.899v33.898m0-33.898h33.87m-33.87 33.898v33.899m0-33.899h33.87m-33.87 33.899v33.898m0-33.898h33.87m-33.87 33.898v36.724m0-36.724h33.87m-33.87 36.724v33.898m0-33.898h33.87m-33.87 33.898v33.901m0-33.901h33.87m-33.87 33.901v33.9m0-33.9h33.87m-33.87 33.9v33.89m0-33.89h33.87m0-307.915v33.898m0-33.898h33.87m-33.87 33.898v33.899m0-33.899h33.87m-33.87 33.899v33.898m0-33.898h33.87m-33.87 33.898v33.899m0-33.899h33.87m-33.87 33.899v33.898m0-33.898h33.87m-33.87 33.898v36.724m0-36.724h33.87m-33.87 36.724v33.898m0-33.898h33.87m-33.87 33.898v33.901m0-33.901h33.87m-33.87 33.901v33.9m0-33.9h33.87m-33.87 33.9v33.89m0-33.89h33.87m104.44-307.915v33.898m0-33.898h-36.69m36.69 0H1796m-33.87 33.898v33.899m0-33.899h-36.69m36.69 0H1796m-33.87 33.899v33.898m0-33.898h-36.69m36.69 0H1796m-33.87 33.898v33.899m0-33.899h-36.69m36.69 0H1796m-33.87 33.899v33.898m0-33.898h-36.69m36.69 0H1796m-33.87 33.898v36.724m0-36.724h-36.69m36.69 0H1796m-33.87 36.724v33.898m0-33.898h-36.69m36.69 0H1796m-33.87 33.898v33.901m0-33.901h-36.69m36.69 0H1796m-33.87 33.901v33.9m0-33.9h-36.69m36.69 0H1796m-33.87 33.9v33.89m0-33.89h-36.69m36.69 0H1796m-70.56-307.915v33.898m0-33.898h-33.87m33.87 33.898v33.899m0-33.899h-33.87m33.87 33.899v33.898m0-33.898h-33.87m33.87 33.898v33.899m0-33.899h-33.87m33.87 33.899v33.898m0-33.898h-33.87m33.87 33.898v36.724m0-36.724h-33.87m33.87 36.724v33.898m0-33.898h-33.87m33.87 33.898v33.901m0-33.901h-33.87m33.87 33.901v33.9m0-33.9h-33.87m33.87 33.9v33.89m0-33.89h-33.87m0-307.915v33.898m0-33.898h-33.88m33.88 33.898v33.899m0-33.899h-33.88m33.88 33.899v33.898m0-33.898h-33.88m33.88 33.898v33.899m0-33.899h-33.88m33.88 33.899v33.898m0-33.898h-33.88m33.88 33.898v36.724m0-36.724h-33.88m33.88 36.724v33.898m0-33.898h-33.88m33.88 33.898v33.901m0-33.901h-33.88m33.88 33.901v33.9m0-33.9h-33.88m33.88 33.9v33.89m0-33.89h-33.88m0-307.915v33.898m0 0v33.899m0 0v33.898m0 0v33.899m0 0v33.898m0 0v36.724m0 0v33.898m0 0v33.901m0 0v33.9m0 0v33.89"/><defs><linearGradient id="a" x1="-41.046" x2="1778.02" y1="828.868" y2="236.514" gradientUnits="userSpaceOnUse"><stop stop-color="#757575" stop-opacity=".1"/><stop offset=".808" stop-color="#5A626E" stop-opacity=".1"/><stop offset="1" stop-color="#475569" stop-opacity=".01"/></linearGradient></defs></svg>