<svg xmlns="http://www.w3.org/2000/svg" xmlns:xlink="http://www.w3.org/1999/xlink" viewBox="0 0 117 80"><path d="M 56.679 67.07 C 58.243 67.073 59.743 66.45 60.844 65.339 L 61.886 64.293 C 63.08 63.09 63.702 61.433 63.593 59.742 C 65.282 59.847 66.934 59.221 68.129 58.023 L 69.171 56.977 C 70.365 55.774 70.987 54.117 70.878 52.426 C 72.566 52.525 74.217 51.899 75.415 50.705 L 76.454 49.659 L 80.617 45.479 C 85.78 40.273 88.362 33.473 88.362 26.672 C 88.362 19.871 85.78 13.071 80.617 7.865 C 70.683 -2.129 54.653 -2.568 44.188 6.869 C 33.723 -2.567 17.693 -2.13 7.758 7.863 C -2.569 18.276 -2.569 35.067 7.758 45.479 L 17.124 54.887 L 18.166 55.931 C 19.266 57.043 20.766 57.666 22.33 57.662 C 22.465 57.662 22.595 57.631 22.729 57.622 C 22.601 59.32 23.213 60.989 24.408 62.202 L 25.449 63.247 C 26.55 64.358 28.05 64.981 29.613 64.978 C 29.749 64.978 29.879 64.949 30.011 64.94 C 29.883 66.636 30.497 68.305 31.693 69.515 L 32.733 70.56 C 33.834 71.673 35.335 72.297 36.9 72.293 C 37.034 72.293 37.164 72.263 37.298 72.254 C 37.172 73.947 37.784 75.612 38.977 76.82 L 40.021 77.869 C 41.121 78.984 42.622 79.611 44.188 79.609 C 45.751 79.613 47.251 78.989 48.351 77.878 L 54.592 71.611 C 55.789 70.4 56.403 68.729 56.274 67.031 C 56.408 67.04 56.539 67.07 56.674 67.07 Z M 78.53 9.939 C 87.716 19.199 87.716 34.135 78.53 43.395 L 77.957 43.971 C 77.701 42.967 77.183 42.05 76.456 41.312 L 53.558 18.317 C 51.811 16.641 49.053 16.641 47.306 18.317 L 35.859 29.813 C 33.535 32.046 29.862 32.046 27.538 29.813 C 26.961 29.232 26.961 28.294 27.538 27.713 L 45.233 9.939 C 49.638 5.507 55.628 3.016 61.877 3.016 C 68.125 3.016 74.116 5.507 78.521 9.939 Z M 9.847 9.939 C 18.614 1.1 32.765 0.666 42.058 8.95 L 25.452 25.631 C 23.732 27.364 23.732 30.159 25.452 31.891 C 27.107 33.554 29.355 34.488 31.701 34.488 C 34.046 34.488 36.294 33.554 37.949 31.891 L 49.395 20.397 C 49.973 19.837 50.891 19.837 51.469 20.397 L 74.367 43.389 C 75.519 44.548 75.519 46.42 74.367 47.58 L 73.326 48.625 C 72.166 49.742 70.331 49.742 69.171 48.625 L 52.518 31.902 C 51.943 31.325 51.01 31.323 50.433 31.897 C 49.857 32.472 49.855 33.405 50.429 33.981 L 67.082 50.705 C 68.234 51.865 68.234 53.737 67.082 54.897 L 66.042 55.943 C 64.881 57.057 63.048 57.057 61.887 55.943 L 45.233 39.218 C 44.658 38.641 43.725 38.639 43.148 39.213 C 42.572 39.788 42.57 40.721 43.144 41.298 L 59.801 58.023 C 60.951 59.182 60.951 61.051 59.801 62.21 L 58.76 63.258 C 58.21 63.812 57.462 64.123 56.682 64.123 C 55.901 64.123 55.153 63.812 54.603 63.258 C 54.603 63.25 54.584 63.247 54.575 63.24 L 53.565 62.209 C 52.346 61.037 50.684 60.443 48.999 60.575 C 49.146 58.86 48.533 57.167 47.323 55.943 L 46.283 54.896 C 45.181 53.784 43.681 53.16 42.116 53.164 C 41.98 53.164 41.851 53.193 41.717 53.202 C 41.846 51.505 41.233 49.836 40.037 48.625 L 38.996 47.578 C 37.78 46.402 36.117 45.805 34.43 45.94 C 34.573 44.225 33.956 42.533 32.742 41.312 L 31.702 40.265 C 30.599 39.156 29.099 38.532 27.535 38.532 C 25.971 38.532 24.471 39.156 23.368 40.265 L 17.124 46.535 C 16.397 47.276 15.879 48.196 15.625 49.203 L 9.847 43.399 C 0.658 34.138 0.658 19.2 9.847 9.939 Z M 22.331 54.716 C 21.551 54.718 20.803 54.406 20.254 53.851 L 19.214 52.807 C 18.063 51.647 18.063 49.774 19.214 48.614 L 25.457 42.343 C 26.007 41.789 26.755 41.478 27.535 41.478 C 28.316 41.478 29.064 41.789 29.613 42.343 L 30.655 43.391 C 31.806 44.551 31.806 46.423 30.655 47.583 L 24.41 53.853 C 23.86 54.408 23.112 54.718 22.331 54.716 Z M 29.616 62.032 C 28.836 62.034 28.088 61.722 27.54 61.168 L 26.498 60.123 C 25.347 58.963 25.347 57.09 26.498 55.93 L 32.742 49.659 C 33.293 49.107 34.041 48.796 34.821 48.796 C 35.601 48.796 36.349 49.107 36.9 49.659 L 37.94 50.707 C 39.092 51.867 39.092 53.74 37.94 54.9 L 31.696 61.168 C 31.147 61.723 30.398 62.035 29.616 62.034 Z M 34.825 68.484 L 33.783 67.436 C 32.63 66.277 32.63 64.405 33.783 63.246 L 40.027 56.976 C 41.188 55.86 43.023 55.86 44.184 56.976 L 45.225 58.023 C 46.373 59.181 46.373 61.049 45.225 62.207 L 45.216 62.215 L 38.975 68.482 L 38.975 68.49 C 37.815 69.601 35.983 69.599 34.825 68.485 Z M 52.5 69.529 L 46.265 75.8 C 45.716 76.353 44.968 76.664 44.189 76.664 C 43.409 76.664 42.662 76.353 42.113 75.8 L 41.069 74.752 C 39.92 73.594 39.92 71.726 41.069 70.568 L 47.314 64.29 C 47.86 63.742 48.602 63.435 49.376 63.436 C 50.156 63.434 50.905 63.743 51.459 64.293 L 52.49 65.348 C 53.643 66.501 53.65 68.369 52.506 69.531 Z" fill="rgb(203, 194, 189)"></path><path d="M 116.04 10.743 C 112.933 10.191 110.517 7.774 109.895 4.736 C 109.895 4.598 109.619 4.598 109.619 4.736 C 108.998 7.774 106.581 10.191 103.474 10.743 C 103.336 10.743 103.336 10.95 103.474 11.019 C 106.581 11.572 108.998 13.988 109.619 17.026 C 109.619 17.164 109.895 17.164 109.895 17.026 C 110.517 13.988 112.933 11.572 116.04 11.019 C 116.178 10.95 116.178 10.743 116.04 10.743 Z" fill="rgb(203, 194, 189)"></path><path d="M 78.02 63.867 C 78.02 62.913 78.793 62.141 79.746 62.141 C 80.699 62.141 81.472 62.913 81.472 63.867 C 81.472 64.82 80.699 65.593 79.746 65.593 C 78.793 65.593 78.02 64.82 78.02 63.867 Z" fill="rgb(203, 194, 189)"></path><path d="M 78.02 71.6 C 78.02 70.303 79.071 69.252 80.367 69.252 C 81.664 69.252 82.715 70.303 82.715 71.6 C 82.715 72.896 81.664 73.947 80.367 73.947 C 79.071 73.947 78.02 72.896 78.02 71.6 Z" fill="rgb(203, 194, 189)"></path><path d="M 95.208 63.521 L 93.551 63.521 L 93.551 61.933 C 93.551 60.76 92.585 59.724 91.411 59.724 L 91.342 59.724 C 90.168 59.724 89.201 60.691 89.132 61.864 L 89.132 63.521 L 87.544 63.521 C 86.371 63.521 85.335 64.488 85.335 65.662 L 85.335 65.731 C 85.266 66.905 86.233 67.871 87.406 67.94 L 89.132 67.94 L 89.132 69.528 C 89.132 70.702 90.099 71.738 91.273 71.738 L 91.342 71.738 C 92.516 71.738 93.482 70.771 93.551 69.597 L 93.551 67.94 L 95.139 67.94 C 96.313 67.94 97.349 66.974 97.349 65.8 L 97.349 65.731 C 97.349 64.557 96.382 63.591 95.208 63.521 Z" fill="rgb(203, 194, 189)"></path><path d="M 106.771 21.359 C 104.631 20.944 102.904 19.287 102.49 17.147 C 102.49 17.078 102.283 17.078 102.283 17.147 C 101.869 19.287 100.143 20.944 98.002 21.359 C 97.933 21.359 97.933 21.497 98.002 21.566 C 100.143 21.98 101.869 23.637 102.283 25.777 C 102.283 25.846 102.49 25.846 102.49 25.777 C 102.904 23.637 104.631 21.98 106.771 21.566 C 106.84 21.497 106.84 21.359 106.771 21.359 Z" fill="rgb(203, 194, 189)"></path></svg>